<svg width="50" height="25" viewBox="0 0 50 25" fill="none" xmlns="http://www.w3.org/2000/svg">
<path d="M15.904 19.744H7.008L5.536 24H0.832L8.864 1.632H14.08L22.112 24H17.376L15.904 19.744ZM14.688 16.16L11.456 6.816L8.224 16.16H14.688ZM24.9863 12.32C24.9863 8.65067 25.5516 5.80267 26.6823 3.776C27.8129 1.74933 29.8396 0.735998 32.7623 0.735998C35.6849 0.735998 37.7116 1.74933 38.8423 3.776C39.9729 5.80267 40.5382 8.65067 40.5382 12.32C40.5382 16.0533 39.9729 18.944 38.8423 20.992C37.7116 23.04 35.6849 24.064 32.7623 24.064C29.8183 24.064 27.7809 23.04 26.6503 20.992C25.5409 18.944 24.9863 16.0533 24.9863 12.32ZM38.3303 12.32C38.3303 10.336 38.1916 8.66133 37.9143 7.296C37.6369 5.93067 37.0929 4.832 36.2823 4C35.4716 3.168 34.2983 2.752 32.7623 2.752C31.2263 2.752 30.0529 3.168 29.2423 4C28.4316 4.832 27.8876 5.93067 27.6102 7.296C27.3329 8.66133 27.1943 10.336 27.1943 12.32C27.1943 14.368 27.3329 16.0853 27.6102 17.472C27.8876 18.8373 28.4316 19.936 29.2423 20.768C30.0529 21.6 31.2263 22.016 32.7623 22.016C34.2983 22.016 35.4716 21.6 36.2823 20.768C37.0929 19.936 37.6369 18.8373 37.9143 17.472C38.1916 16.0853 38.3303 14.368 38.3303 12.32ZM43.617 3.072V1.056H49.057V24H46.785V3.072H43.617Z" fill="white"/>
</svg>
